<?xml version="1.0"?><svg viewBox="0 0 64 64" xmlns="http://www.w3.org/2000/svg"><defs><style>.cls-1{fill:#eee;}.cls-2{fill:#6b4f5b;}.cls-2,.cls-3,.cls-4,.cls-6,.cls-7,.cls-8{stroke:#4c241d;stroke-linejoin:round;stroke-width:2px;}.cls-2,.cls-3,.cls-4,.cls-6,.cls-8{stroke-linecap:round;}.cls-3{fill:#b5a19c;}.cls-4,.cls-7{fill:none;}.cls-5{fill:#4c241d;}.cls-6{fill:#f96e43;}.cls-8{fill:#a9ba5a;}</style></defs><g id="digital-art"><circle class="cls-1" cx="31" cy="26" r="23"/><rect class="cls-2" height="34" rx="2.2779" width="55" x="3" y="26"/><rect class="cls-3" height="26" width="39" x="15" y="30"/><line class="cls-4" x1="14" x2="17" y1="17" y2="20"/><line class="cls-4" x1="17" x2="14" y1="17" y2="20"/><path class="cls-5" d="M18,10a1,1,0,1,1-1-1A1,1,0,0,1,18,10Z"/><circle class="cls-4" cx="29.5" cy="10.5" r="2.5"/><polygon class="cls-2" points="39.916 35.952 37.113 36.335 36.73 33.532 55.479 8.845 58.665 11.264 39.916 35.952"/><rect class="cls-6" height="3.5985" transform="translate(17.0576 -33.4203) rotate(37.2151)" width="4" x="56.1603" y="6.8224"/><line class="cls-4" x1="7" x2="11" y1="32" y2="32"/><line class="cls-4" x1="7" x2="11" y1="35" y2="35"/><line class="cls-7" x1="3" x2="15" y1="47" y2="47"/><line class="cls-7" x1="15" x2="3" y1="53" y2="53"/><circle class="cls-8" cx="9" cy="41" r="3"/></g></svg>